<svg width="80" height="80" viewBox="0 0 80 80" fill="none" xmlns="http://www.w3.org/2000/svg">
<path d="M72 33.7942V56.5387C72 57.2906 71.6959 57.9717 71.2032 58.4633C70.7168 58.9581 70.0353 59.2633 69.2865 59.2633C67.789 59.2633 66.5763 58.0424 66.5763 56.5387V47.687H63.3316V63H27.8294L17.1452 52.2687V44.4162H13.4237V50.7297C13.4237 52.2334 12.2142 53.4511 10.7167 53.4511H10.7135C9.21596 53.4511 8 52.2334 8 50.7297V33.068C8 31.5644 9.21596 30.3434 10.7135 30.3434H10.7167C12.2142 30.3434 13.4237 31.5644 13.4237 33.068V39.3815H17.1452V30.3724L23.868 30.3852L23.884 25.7136H36.2098V22.446H31.2596C29.7653 22.446 28.5493 21.2283 28.5493 19.7246V19.7214C28.5493 18.2177 29.7653 17 31.2596 17H46.1772C47.6748 17 48.8907 18.2177 48.8907 19.7214V19.7246C48.8907 21.2283 47.6748 22.446 46.1772 22.446H41.2271V25.7136H54.1704V29.839H63.3316V42.6491H66.5763V33.7942C66.5763 33.0423 66.877 32.358 67.3697 31.8696C67.8593 31.3748 68.5377 31.0696 69.2865 31.0696C70.784 31.0696 72 32.2905 72 33.7942Z" stroke="#8F2F34" stroke-width="1.28807" stroke-miterlimit="10" stroke-linecap="round" stroke-linejoin="round"/>
</svg>
