<svg width="80" height="80" viewBox="0 0 80 80" fill="none" xmlns="http://www.w3.org/2000/svg">
<path d="M72.3714 40.1859C72.3714 22.4105 57.9611 8.00016 40.1857 8.00016C22.4103 8.00016 8 22.4105 8 40.1859C8 57.9613 22.4103 72.3716 40.1857 72.3716C57.9611 72.3716 72.3714 57.9613 72.3714 40.1859Z" stroke="#8F2F34" stroke-width="1.28807" stroke-miterlimit="10" stroke-linecap="round" stroke-linejoin="round"/>
<path d="M19.8439 55.1729C16.8749 51.0607 15.1328 46.005 15.1328 40.5468C15.1328 26.7129 26.3455 15.4905 40.1891 15.4905C54.023 15.4905 65.2453 26.7129 65.2453 40.5468C65.2453 46.005 63.4935 51.0607 60.5342 55.1729" stroke="#8F2F34" stroke-width="1.28807" stroke-miterlimit="10" stroke-linecap="round" stroke-linejoin="round"/>
<path d="M44.8488 40.3728C44.8488 42.949 42.7621 45.0356 40.1892 45.0356C37.6131 45.0356 35.5264 42.949 35.5264 40.3728C35.5264 37.7999 37.6131 35.7132 40.1892 35.7132C42.7621 35.7132 44.8488 37.7999 44.8488 40.3728Z" stroke="#8F2F34" stroke-width="1.28807" stroke-miterlimit="10" stroke-linecap="round" stroke-linejoin="round"/>
<path d="M40.1895 15.4905V21.5928" stroke="#8F2F34" stroke-width="1.28807" stroke-miterlimit="10" stroke-linecap="round" stroke-linejoin="round"/>
<path d="M23.6826 22.327L27.9977 26.6421" stroke="#8F2F34" stroke-width="1.28807" stroke-miterlimit="10" stroke-linecap="round" stroke-linejoin="round"/>
<path d="M19.8604 55.1729L24.1754 50.8578" stroke="#8F2F34" stroke-width="1.28807" stroke-miterlimit="10" stroke-linecap="round" stroke-linejoin="round"/>
<path d="M60.5113 55.1729L56.1963 50.8578" stroke="#8F2F34" stroke-width="1.28807" stroke-miterlimit="10" stroke-linecap="round" stroke-linejoin="round"/>
<path d="M15.4033 38.8301H21.5056" stroke="#8F2F34" stroke-width="1.28807" stroke-miterlimit="10" stroke-linecap="round" stroke-linejoin="round"/>
<path d="M56.6923 22.327L52.374 26.6421" stroke="#8F2F34" stroke-width="1.28807" stroke-miterlimit="10" stroke-linecap="round" stroke-linejoin="round"/>
<path d="M64.9717 38.8301H58.8662" stroke="#8F2F34" stroke-width="1.28807" stroke-miterlimit="10" stroke-linecap="round" stroke-linejoin="round"/>
<path d="M40.9326 35.7129L44.8483 27.8943" stroke="#8F2F34" stroke-width="1.28807" stroke-miterlimit="10" stroke-linecap="round" stroke-linejoin="round"/>
<path d="M51.6819 60.4087H28.6963V51.9911H51.6819V60.4087Z" stroke="#8F2F34" stroke-width="1.28807" stroke-miterlimit="10" stroke-linecap="round" stroke-linejoin="round"/>
</svg>
