<svg width="80" height="80" viewBox="0 0 80 80" fill="none" xmlns="http://www.w3.org/2000/svg">
<path d="M43.4253 14.4629C59.4199 14.4629 72.3875 27.4338 72.3875 43.422C72.3875 59.4198 59.4199 72.3843 43.4253 72.3843C27.4339 72.3843 14.4629 59.4198 14.4629 43.422" stroke="#8F2F34" stroke-width="1.28807" stroke-miterlimit="10" stroke-linecap="round" stroke-linejoin="round"/>
<path d="M54.3738 43.4254C54.3738 49.4729 49.4727 54.374 43.4252 54.374C37.3777 54.374 32.4766 49.4729 32.4766 43.4254C32.4766 37.3779 37.3777 32.4768 43.4252 32.4768C49.4727 32.4768 54.3738 37.3779 54.3738 43.4254Z" stroke="#8F2F34" stroke-width="1.28807" stroke-miterlimit="10" stroke-linecap="round" stroke-linejoin="round"/>
<path d="M49.479 43.4251C49.479 46.7676 46.7708 49.479 43.425 49.479C40.0825 49.479 37.3711 46.7676 37.3711 43.4251C37.3711 40.0793 40.0825 37.3711 43.425 37.3711C46.7708 37.3711 49.479 40.0793 49.479 43.4251Z" stroke="#8F2F34" stroke-width="1.28807" stroke-miterlimit="10" stroke-linecap="round" stroke-linejoin="round"/>
<path d="M43.4253 7.99988V25.1956C33.3558 25.1956 25.1958 33.3556 25.1958 43.4219H8C8 23.8593 23.8659 7.99988 43.4253 7.99988Z" stroke="#8F2F34" stroke-width="1.28807" stroke-miterlimit="10" stroke-linecap="round" stroke-linejoin="round"/>
</svg>
